<svg width="406" height="306" viewBox="0 0 406 306" fill="none" xmlns="http://www.w3.org/2000/svg">
<path d="M197.194 296.257L14.7784 188.454C8.97259 185.186 3.98894 179.837 9.65264 176.345L192.728 70.785C195.479 69.0798 199.65 67.9633 202.442 69.5873L393.932 180.75C399.737 184.12 400.783 193.539 394.947 196.919L221.27 296.115C217.616 298.232 213.474 299.359 209.251 299.384C205.028 299.409 200.872 298.331 197.194 296.257Z" fill="#3D67FF"/>
<path d="M202.178 201.446L281.723 248.857L301.688 236.961L221.097 185.196" fill="#3D67FF"/>
<path d="M161.821 256.865L210.876 288.005L232.476 273.846L180.741 240.615" fill="#3D67FF"/>
<path d="M65.5792 190.9L96.6788 208.886L125.089 194.422L93.7251 174.914" fill="#3D67FF"/>
<path d="M77.5562 193.549C89.1431 193.549 98.5362 186.937 98.5362 178.781C98.5362 170.625 89.1431 164.013 77.5562 164.013C65.9692 164.013 56.5761 170.625 56.5761 178.781C56.5761 186.937 65.9692 193.549 77.5562 193.549Z" fill="#55A0FF"/>
<path d="M77.5663 176.487C86.2439 176.487 93.2785 173.606 93.2785 170.052C93.2785 166.498 86.2439 163.617 77.5663 163.617C68.8887 163.617 61.8541 166.498 61.8541 170.052C61.8541 173.606 68.8887 176.487 77.5663 176.487Z" fill="#974C26"/>
<path d="M78.6118 170.255C79.8501 168.519 81.0884 166.703 82.3876 164.662C84.0522 162.054 85.6051 159.384 87.0261 156.644C88.3534 154.206 89.487 151.667 90.4162 149.052C91.4517 146.212 92.2827 143.301 92.903 140.343C93.0654 139.572 93.1973 138.79 93.3394 138.008C93.4003 137.643 93.4105 137.694 93.4105 137.745C93.4105 137.795 93.4105 137.491 93.4612 137.065C93.6033 135.471 93.7048 133.888 93.7251 132.294C93.8017 126.781 92.741 121.311 90.6091 116.227C84.9566 124.451 81.1481 133.799 79.4441 143.632C79.3358 144.22 79.2343 144.809 79.1396 145.398C79.1396 145.398 78.9772 146.474 78.9163 146.9C78.8554 147.326 78.764 148.26 78.7437 148.382C78.6693 149.133 78.6016 149.884 78.5407 150.635C78.3073 153.528 78.2058 156.431 78.2159 159.334C78.155 162.957 78.3276 166.591 78.6118 170.255ZM85.26 126.843C85.6389 126.41 86.0314 125.991 86.4374 125.585C86.3318 125.951 86.3075 126.335 86.3664 126.711C85.993 126.698 85.6197 126.742 85.26 126.843Z" fill="#999A1C"/>
<path d="M79.0076 170.468C79.1091 168.347 79.17 166.134 79.1598 163.729C79.1598 160.684 79.0177 157.547 78.7335 154.472C78.5336 151.703 78.1162 148.954 77.4851 146.25C76.8199 143.302 75.9448 140.405 74.8664 137.582C74.5822 136.841 74.2777 136.11 73.963 135.38C73.8209 135.045 73.8514 135.075 73.8717 135.116L73.557 134.517C72.8161 133.106 72.0548 131.715 71.2022 130.366C68.2815 125.692 64.429 121.67 59.885 118.551C59.5582 128.54 61.3968 138.481 65.2746 147.692C65.4979 148.246 65.728 148.798 65.9648 149.346L66.5941 150.737L67.2539 152.076C67.5922 152.753 67.9306 153.43 68.2689 154.106C69.6391 156.664 71.121 159.181 72.6943 161.607C74.704 164.622 76.8152 167.575 79.0076 170.468ZM61.1943 130.376C61.2823 129.807 61.3838 129.242 61.4988 128.681C61.6038 129.055 61.7911 129.402 62.0469 129.696C61.7298 129.878 61.4423 130.107 61.1943 130.376Z" fill="#999A1C"/>
<path d="M79.1091 171.574C78.4798 170.397 77.7997 169.189 77.0182 167.89C76.0032 166.225 74.9882 164.601 73.8007 163.028C72.7995 161.589 71.6863 160.232 70.4715 158.968C69.1607 157.59 67.753 156.308 66.2592 155.132C65.8634 154.827 65.4675 154.533 65.0615 154.238C64.8788 154.106 64.8991 154.106 64.9296 154.127L64.5642 153.903C63.7116 153.386 62.8488 152.888 61.9556 152.421C58.8696 150.839 55.4903 149.909 52.0289 149.691C55.0754 155.199 59.2793 159.981 64.351 163.708L65.2544 164.378L66.0359 164.926L66.8276 165.434L68.005 166.195C69.5681 167.136 71.1718 168.008 72.8161 168.814C74.8968 169.819 76.9979 170.732 79.1091 171.574ZM56.5558 155.69C56.4205 155.351 56.2919 155.013 56.1701 154.675C56.345 154.836 56.5528 154.957 56.7791 155.03C56.6711 155.237 56.5958 155.46 56.5558 155.69Z" fill="#999A1C"/>
<path d="M78.6118 170.255C79.8501 168.519 81.0884 166.703 82.3876 164.662C84.0522 162.054 85.6051 159.384 87.0261 156.644C88.3534 154.206 89.487 151.667 90.4162 149.052C91.4517 146.212 92.2827 143.301 92.903 140.343C93.0654 139.572 93.1973 138.79 93.3394 138.008C93.4003 137.643 93.4105 137.694 93.4105 137.745C93.4105 137.795 93.4105 137.491 93.4612 137.065C93.6033 135.471 93.7048 133.888 93.7251 132.294C93.8017 126.781 92.741 121.311 90.6091 116.227C84.9566 124.451 81.1481 133.799 79.4441 143.632C79.3358 144.22 79.2343 144.809 79.1396 145.398C79.1396 145.398 78.9772 146.474 78.9163 146.9C78.8554 147.326 78.764 148.26 78.7437 148.382C78.6693 149.133 78.6016 149.884 78.5407 150.635C78.3073 153.528 78.2058 156.431 78.2159 159.334C78.155 162.957 78.3276 166.591 78.6118 170.255ZM85.26 126.843C85.6389 126.41 86.0314 125.991 86.4374 125.585C86.3318 125.951 86.3075 126.335 86.3664 126.711C85.993 126.698 85.6197 126.742 85.26 126.843Z" fill="#999A1C"/>
<path d="M79.0076 170.468C79.1091 168.347 79.17 166.134 79.1598 163.729C79.1598 160.684 79.0177 157.547 78.7335 154.472C78.5336 151.703 78.1162 148.954 77.4851 146.25C76.8199 143.302 75.9448 140.405 74.8664 137.582C74.5822 136.841 74.2777 136.11 73.963 135.38C73.8209 135.045 73.8514 135.075 73.8717 135.116L73.557 134.517C72.8161 133.106 72.0548 131.715 71.2022 130.366C68.2815 125.692 64.429 121.67 59.885 118.551C59.5582 128.54 61.3968 138.481 65.2746 147.692C65.4979 148.246 65.728 148.798 65.9648 149.346L66.5941 150.737L67.2539 152.076C67.5922 152.753 67.9306 153.43 68.2689 154.106C69.6391 156.664 71.121 159.181 72.6943 161.607C74.704 164.622 76.8152 167.575 79.0076 170.468ZM61.1943 130.376C61.2823 129.807 61.3838 129.242 61.4988 128.681C61.6038 129.055 61.7911 129.402 62.0469 129.696C61.7298 129.878 61.4423 130.107 61.1943 130.376Z" fill="#999A1C"/>
<path d="M79.1091 171.574C78.4798 170.397 77.7997 169.189 77.0182 167.89C76.0032 166.225 74.9882 164.601 73.8007 163.028C72.7995 161.589 71.6863 160.232 70.4715 158.968C69.1607 157.59 67.753 156.308 66.2592 155.132C65.8634 154.827 65.4675 154.533 65.0615 154.238C64.8788 154.106 64.8991 154.106 64.9296 154.127L64.5642 153.903C63.7116 153.386 62.8488 152.888 61.9556 152.421C58.8696 150.839 55.4903 149.909 52.0289 149.691C55.0754 155.199 59.2793 159.981 64.351 163.708L65.2544 164.378L66.0359 164.926L66.8276 165.434L68.005 166.195C69.5681 167.136 71.1718 168.008 72.8161 168.814C74.8968 169.819 76.9979 170.732 79.1091 171.574ZM56.5558 155.69C56.4205 155.351 56.2919 155.013 56.1701 154.675C56.345 154.836 56.5528 154.957 56.7791 155.03C56.6711 155.237 56.5958 155.46 56.5558 155.69Z" fill="#999A1C"/>
<path d="M193.763 11.3466L186.405 14.6048L193.479 17.7107L195.184 14.0567" fill="#EF7F6C"/>
<path d="M260.855 227.653L199.691 192.006C197.224 190.574 195.175 188.518 193.75 186.046C192.326 183.574 191.574 180.772 191.571 177.918L189.612 15.975C189.612 11.7222 196.21 9.57035 199.864 11.7222L263.149 49.0945C264.718 50.0207 266.019 51.34 266.924 52.9223C267.828 54.5047 268.304 56.2953 268.305 58.1178V223.37C268.306 224.242 268.077 225.099 267.641 225.854C267.204 226.608 266.577 227.235 265.821 227.67C265.065 228.104 264.208 228.331 263.336 228.329C262.464 228.326 261.608 228.093 260.855 227.653Z" fill="#EF7F6C"/>
<path d="M265.747 227.694L257.749 231.926L258.683 226.344L264.235 225.349" fill="#EF7F6C"/>
<path d="M253.182 231.703L192.018 196.056C189.55 194.623 187.502 192.568 186.077 190.096C184.652 187.624 183.901 184.821 183.898 181.968V18.5531C183.899 17.7895 184.102 17.0398 184.486 16.3799C184.871 15.7199 185.422 15.1733 186.086 14.7952C186.749 14.4171 187.501 14.221 188.265 14.2268C189.028 14.2326 189.777 14.44 190.434 14.8281L255.475 53.195C257.045 54.1213 258.346 55.4406 259.25 57.0229C260.154 58.6053 260.631 60.3959 260.632 62.2184V227.43C260.631 228.301 260.4 229.156 259.963 229.91C259.526 230.664 258.899 231.289 258.143 231.722C257.387 232.155 256.531 232.382 255.66 232.378C254.789 232.375 253.934 232.142 253.182 231.703Z" fill="#F4F4F4"/>
<path d="M256.754 72.206L187.064 32.2455V175.228L256.754 215.514V72.206Z" fill="white"/>
<path d="M216.433 205.524C218.161 205.111 219.112 202.889 218.556 200.561C218 198.233 216.148 196.68 214.42 197.093C212.691 197.505 211.741 199.727 212.297 202.056C212.853 204.384 214.705 205.936 216.433 205.524Z" fill="#BABABC"/>
<path d="M212.815 39.117C212.815 39.391 212.887 39.6601 213.024 39.8972C213.161 40.1343 213.359 40.3309 213.597 40.467L227.055 48.2013C227.292 48.339 227.561 48.4118 227.835 48.4123C228.108 48.4127 228.377 48.3407 228.614 48.2037C228.851 48.0666 229.048 47.8694 229.184 47.6319C229.32 47.3944 229.391 47.1251 229.39 46.8513V46.5265C229.39 46.2488 229.316 45.9762 229.175 45.7369C229.034 45.4977 228.831 45.3007 228.588 45.1664L215.129 37.7569C214.892 37.6237 214.625 37.555 214.353 37.5576C214.082 37.5602 213.815 37.634 213.581 37.7716C213.347 37.9093 213.153 38.106 213.018 38.342C212.884 38.5781 212.814 38.8453 212.815 39.117Z" fill="#CCCCCC"/>
<path d="M207.344 36.9502C208.133 36.6584 208.449 35.5481 208.05 34.4704C207.651 33.3927 206.688 32.7556 205.9 33.0474C205.111 33.3393 204.795 34.4496 205.194 35.5273C205.593 36.605 206.555 37.2421 207.344 36.9502Z" fill="#CCCCCC"/>
<path d="M293.863 112.451C293.751 112.664 293.213 114.714 292.787 114.288C292.361 113.862 290.097 114.836 290.097 114.836L283.774 106.797L284.616 104.168H290.29" fill="#1668D0"/>
<path d="M263.321 77.7987L262.723 75.7078L256.074 72.0842V60.767C256.074 60.5437 262.509 64.5428 262.509 64.5428L262.814 63.9135C263.174 62.1819 263.834 60.5263 264.763 59.0212L260.084 50.3734L266.032 45.8566L270.477 54.7683C272.094 54.3976 273.778 54.429 275.38 54.8597V46.3134L283.885 51.0331V59.9753C285.555 61.5746 287.074 63.3244 288.422 65.2025L293.548 61.9241L299.425 72.9571L294.837 76.6111L295.233 78.4584C295.827 80.4139 296.301 82.4035 296.654 84.4165L303.475 88.1719V99.4486L296.979 95.5713C296.697 97.6271 295.981 99.5993 294.878 101.357L299.75 109.619L293.579 114.288L289.245 105.782H283.855V114.288L275.735 109.345V100.981C273.869 99.1496 272.223 97.1057 270.832 94.8913L265.93 98.2509L260.023 87.025L264.915 83.3812L264.438 81.6963C263.991 80.3869 263.626 79.0877 263.321 77.7987Z" fill="#1668D0"/>
<path d="M247.893 65.4766L255.425 60.9294L257.292 63.7104L254.389 69.8004" fill="#1668D0"/>
<path d="M257.739 102.971L263.301 100.656V97.2867" fill="#1668D0"/>
<path d="M275.633 118.997L283.804 114.288L281.734 108.107L274.375 110.268L275.633 118.997Z" fill="#1668D0"/>
<path d="M266.021 45.8465L257.84 50.5662L262.337 59.4982L267.239 59.5896L268.376 50.5662L266.021 45.8465Z" fill="#1668D0"/>
<path d="M273.345 90.7815C275.239 90.0374 275.736 86.7906 274.455 83.5298C273.173 80.2689 270.599 78.2286 268.706 78.9728C266.812 79.7169 266.315 82.9636 267.596 86.2245C268.877 89.4854 271.451 91.5256 273.345 90.7815Z" fill="#1668D0"/>
<path d="M283.916 51.0331L275.745 55.7427L267.239 51.0229L275.41 46.3134L283.916 51.0331Z" fill="#1668D0"/>
<path d="M285.408 66.6438L293.589 61.9342L299.374 72.9571L291.203 77.6667L285.408 66.6438Z" fill="#1668D0"/>
<path d="M299.699 109.619L291.528 114.329L285.357 118.998L293.528 114.288L299.699 109.619Z" fill="#1668D0"/>
<path opacity="0.44" d="M293.863 112.451C293.751 112.664 293.213 114.714 292.787 114.288C292.361 113.862 290.097 114.836 290.097 114.836L283.774 106.797L284.616 104.168H290.29" fill="#053855"/>
<path d="M263.321 77.7987L262.723 75.7078L256.074 72.0842V60.767C256.074 60.5437 262.509 64.5428 262.509 64.5428L262.814 63.9135C263.174 62.1819 263.834 60.5263 264.763 59.0212L260.084 50.3734L266.032 45.8566L270.477 54.7683C272.094 54.3976 273.778 54.429 275.38 54.8597V46.3134L283.885 51.0331V59.9753C285.555 61.5746 287.074 63.3244 288.422 65.2025L293.548 61.9241L299.425 72.9571L294.837 76.6111L295.233 78.4584C295.827 80.4139 296.301 82.4035 296.654 84.4165L303.475 88.1719V99.4486L296.979 95.5713C296.697 97.6271 295.981 99.5993 294.878 101.357L299.75 109.619L293.579 114.288L289.245 105.782H283.855V114.288L275.735 109.345V100.981C273.869 99.1496 272.223 97.1057 270.832 94.8913L265.93 98.2509L260.023 87.025L264.915 83.3812L264.438 81.6963C263.991 80.3869 263.626 79.0877 263.321 77.7987Z" fill="#1668D0"/>
<path opacity="0.44" d="M247.893 65.4766L255.425 60.9294L257.292 63.7104L254.389 69.8004" fill="#053855"/>
<path d="M257.739 102.971L263.301 100.656V97.2867" fill="#1668D0"/>
<path d="M275.633 118.997L283.804 114.288L281.734 108.107L274.375 110.268L275.633 118.997Z" fill="#1668D0"/>
<path d="M266.021 45.8465L257.84 50.5662L262.337 59.4982L267.239 59.5896L268.376 50.5662L266.021 45.8465Z" fill="#1668D0"/>
<path d="M273.345 90.7815C275.239 90.0374 275.736 86.7906 274.455 83.5298C273.173 80.2689 270.599 78.2286 268.706 78.9728C266.812 79.7169 266.315 82.9636 267.596 86.2245C268.877 89.4854 271.451 91.5256 273.345 90.7815Z" fill="#1668D0"/>
<path d="M285.408 66.6438L293.589 61.9342L299.374 72.9571L291.203 77.6667L285.408 66.6438Z" fill="#1668D0"/>
<path d="M299.699 109.619L291.528 114.329L285.357 118.998L293.528 114.288L299.699 109.619Z" fill="#1668D0"/>
<path opacity="0.44" d="M263.321 77.7987L262.723 75.7078L256.074 72.0842V60.767C256.074 60.5437 262.509 64.5428 262.509 64.5428L262.814 63.9135C263.174 62.1819 263.834 60.5263 264.763 59.0212L260.084 50.3734L266.032 45.8566L270.477 54.7683C272.094 54.3976 273.778 54.429 275.38 54.8597V46.3134L283.885 51.0331V59.9753C285.555 61.5746 287.074 63.3244 288.422 65.2025L293.548 61.9241L299.425 72.9571L294.837 76.6111L295.233 78.4584C295.827 80.4139 296.301 82.4035 296.654 84.4165L303.475 88.1719V99.4486L296.979 95.5713C296.697 97.6271 295.981 99.5993 294.878 101.357L299.75 109.619L293.579 114.288L289.245 105.782H283.855V114.288L275.735 109.345V100.981C273.869 99.1496 272.223 97.1057 270.832 94.8913L265.93 98.2509L260.023 87.025L264.915 83.3812L264.438 81.6963C263.991 80.3869 263.626 79.0877 263.321 77.7987Z" fill="#053855"/>
<path opacity="0.1" d="M257.739 102.971L263.301 100.656V97.2867" fill="#053855"/>
<path opacity="0.1" d="M275.633 118.997L283.804 114.288L281.734 108.107L274.375 110.268L275.633 118.997Z" fill="#053855"/>
<path opacity="0.1" d="M273.345 90.7815C275.239 90.0374 275.736 86.7906 274.455 83.5298C273.173 80.2689 270.599 78.2286 268.706 78.9728C266.812 79.7169 266.315 82.9636 267.596 86.2245C268.877 89.4854 271.451 91.5256 273.345 90.7815Z" fill="#053855"/>
<path opacity="0.1" d="M285.408 66.6438L293.589 61.9342L299.374 72.9571L291.203 77.6667L285.408 66.6438Z" fill="#053855"/>
<path opacity="0.1" d="M299.699 109.619L291.528 114.329L285.357 118.998L293.528 114.288L299.699 109.619Z" fill="#053855"/>
<path opacity="0.1" d="M257.739 102.971L263.301 100.656V97.2867" fill="#053855"/>
<path opacity="0.44" d="M275.633 118.997L283.804 114.288L281.734 108.107L274.375 110.268L275.633 118.997Z" fill="#053855"/>
<path d="M255.141 82.5184L254.542 80.4275L247.893 76.804V65.4766C247.893 65.2533 254.329 69.2524 254.329 69.2524L254.633 68.6231C254.994 66.8915 255.653 65.2359 256.582 63.7308L251.903 55.083L257.81 50.5662L262.256 59.4779C263.873 59.1073 265.556 59.1386 267.158 59.5693V51.0331L275.664 55.7529V64.695C277.334 66.2944 278.852 68.0442 280.201 69.9223L285.327 66.6438L291.122 77.6667L286.534 81.3207L286.93 83.168C287.524 85.1235 287.999 87.1131 288.351 89.1261L295.172 92.8816V104.168L288.676 100.291C288.394 102.347 287.678 104.319 286.575 106.077L291.447 114.339L285.276 119.008L280.942 110.502H275.552V119.008L267.432 114.065V105.701C265.566 103.869 263.921 101.825 262.53 99.611L257.648 102.95L251.761 91.694L256.653 88.0806L256.176 86.3957C255.78 85.0965 255.445 83.7973 255.141 82.5184Z" fill="#1668D0"/>
<path opacity="0.44" d="M273.345 90.7815C275.239 90.0374 275.736 86.7906 274.455 83.5298C273.173 80.2689 270.599 78.2286 268.706 78.9728C266.812 79.7169 266.315 82.9636 267.596 86.2245C268.877 89.4854 271.451 91.5256 273.345 90.7815Z" fill="#053855"/>
<path opacity="0.44" d="M299.699 109.619L291.528 114.329L285.357 118.998L293.528 114.288L299.699 109.619Z" fill="#053855"/>
<path d="M283.916 51.0331L275.745 55.7427L267.239 51.0229L275.41 46.3134L283.916 51.0331Z" fill="#1668D0"/>
<path opacity="0.44" d="M283.916 51.0026L275.765 55.7427L267.239 51.0636L275.4 46.3134L283.916 51.0026Z" fill="#053855"/>
<path d="M303.424 88.1618L295.253 92.8815V104.158L303.424 99.4486V88.1618Z" fill="#1668D0"/>
<path opacity="0.44" d="M303.424 88.1618L295.253 92.8815V104.158L303.424 99.4486V88.1618Z" fill="#053855"/>
<path d="M235.693 129.087V171.372L226.924 166.246L226.842 123.981L235.693 129.087Z" fill="#5FAD00"/>
<path d="M220.966 113.476L221.118 163.17L211.932 157.831V108.37L220.966 113.476Z" fill="#F8997C"/>
<path d="M206.126 100.027L206.268 154.868L198.087 150.117V95.1348L206.126 100.027Z" fill="#FFE427"/>
<path d="M234.922 176.558C234.921 176.914 234.827 177.264 234.649 177.572C234.471 177.881 234.214 178.137 233.906 178.315C233.597 178.493 233.247 178.586 232.891 178.586C232.535 178.586 232.185 178.492 231.877 178.314L194.21 156.806C193.902 156.628 193.646 156.372 193.468 156.064C193.289 155.756 193.195 155.406 193.195 155.05C193.195 154.694 193.29 154.344 193.468 154.036C193.646 153.728 193.902 153.472 194.211 153.294C194.52 153.116 194.869 153.022 195.226 153.022C195.582 153.022 195.932 153.116 196.24 153.294L233.907 174.751C234.223 174.934 234.484 175.198 234.662 175.516C234.841 175.833 234.93 176.194 234.922 176.558Z" fill="#FFE427"/>
<path d="M243.123 94.0183V109.243C243.123 109.619 243.024 109.988 242.837 110.313C242.649 110.638 242.379 110.908 242.055 111.096C241.73 111.285 241.361 111.384 240.986 111.385C240.61 111.386 240.241 111.288 239.916 111.101L198.463 87.1773C198.138 86.9884 197.868 86.7173 197.681 86.3913C197.494 86.0653 197.396 85.6957 197.397 85.3198V70.0948C197.397 69.7194 197.496 69.3506 197.683 69.0253C197.871 68.7001 198.141 68.4298 198.466 68.2417C198.79 68.0535 199.159 67.9541 199.535 67.9534C199.91 67.9526 200.279 68.0505 200.605 68.2373L242.057 92.171C242.381 92.359 242.649 92.6285 242.836 92.9526C243.023 93.2767 243.122 93.6442 243.123 94.0183Z" fill="#FFE427"/>
<path d="M235.898 104.283C238.746 103.379 240.139 99.7619 239.009 96.2035C237.88 92.6451 234.656 90.4932 231.808 91.3971C228.96 92.301 227.567 95.9185 228.697 99.4769C229.826 103.035 233.05 105.187 235.898 104.283Z" fill="white"/>
<path d="M227.218 88.5577L203 74.9871C202.147 74.5101 201.376 75.8194 202.229 76.3066L226.457 89.867C227.309 90.3441 228.081 89.0347 227.228 88.5475L227.218 88.5577Z" fill="#7F47DD"/>
<path d="M226.345 94.4751L211.262 86.01C210.409 85.533 209.638 86.8423 210.491 87.3295L225.553 95.7642C226.406 96.2412 227.177 94.9319 226.325 94.4447L226.345 94.4751Z" fill="#7F47DD"/>
<path d="M192.708 90.2019V47.6633C192.707 46.7734 192.476 45.8988 192.037 45.125C191.597 44.3511 190.965 43.7044 190.201 43.248L163.121 27.069C162.628 26.7776 162.068 26.6214 161.496 26.6161C160.924 26.6108 160.361 26.7567 159.864 27.0389C159.366 27.3211 158.952 27.7297 158.663 28.2233C158.374 28.7169 158.221 29.2781 158.218 29.8501V72.3583C158.22 73.3369 158.483 74.2973 158.981 75.1398C159.479 75.9823 160.193 76.676 161.05 77.149L189.237 92.2827C189.596 92.4731 189.999 92.5674 190.406 92.5566C190.813 92.5458 191.21 92.4302 191.559 92.2209C191.908 92.0117 192.197 91.716 192.398 91.3623C192.6 91.0086 192.706 90.6089 192.708 90.2019Z" fill="#1668D0"/>
<path d="M169.647 43.4511C175.463 41.6038 181.979 46.354 184.497 54.2507C185.635 57.6761 185.716 61.3648 184.73 64.8371C183.715 68.2983 181.472 70.7139 178.559 71.6376C177.735 71.9 176.876 72.0335 176.011 72.0335C173.666 71.9715 171.408 71.1285 169.596 69.6381C166.796 67.3618 164.744 64.2956 163.709 60.838C161.233 52.9312 163.831 45.2984 169.647 43.4511Z" fill="white"/>
<path d="M174.113 43.2582V57.9047L163.354 50.5865C163.354 50.5865 165.445 41.7357 174.113 43.2582Z" fill="#F8997C"/>
<path d="M174.113 57.9047L163.212 58.808C163.212 58.808 161.842 54.0984 163.354 50.5764L174.113 57.9047Z" fill="#5FAD00"/>
<path d="M316.487 177.299C316.396 177.472 315.959 179.126 315.614 178.781C315.269 178.436 313.432 179.217 313.432 179.217L308.357 172.711L309.037 170.59H313.635" fill="#1668D0"/>
<path d="M291.772 149.255L291.295 147.57L285.915 144.636V135.501C285.915 135.319 291.122 138.546 291.122 138.546L291.366 138.039C291.659 136.637 292.195 135.298 292.949 134.08L289.163 127.087L293.974 123.423L297.578 130.64C298.886 130.337 300.249 130.362 301.546 130.711V123.778L308.428 127.595V134.832C309.78 136.126 311.01 137.543 312.102 139.064L316.254 136.415L320.943 145.337L317.228 148.29L317.543 149.782C318.022 151.365 318.405 152.975 318.69 154.604L324.211 157.649V166.784L318.954 163.647C318.727 165.31 318.149 166.905 317.259 168.327L321.197 175.015L316.203 178.791L312.691 171.909H308.327V178.791L301.759 174.792V168.022C300.25 166.544 298.918 164.896 297.791 163.109L293.842 165.809L289.072 156.674L293.031 153.751L292.645 152.381C292.32 151.346 292.015 150.3 291.772 149.255Z" fill="#1668D0"/>
<path d="M279.287 139.287L285.377 135.603L286.89 137.856L284.535 142.779" fill="#1668D0"/>
<path d="M287.255 169.626L291.752 167.758V165.028" fill="#1668D0"/>
<path d="M301.739 182.597L308.347 178.791L306.672 173.777L300.724 175.533L301.739 182.597Z" fill="#1668D0"/>
<path d="M293.954 123.403L287.346 127.209L290.97 134.446L294.939 134.517L295.862 127.209L293.954 123.403Z" fill="#1668D0"/>
<path d="M299.889 159.766C301.423 159.163 301.825 156.534 300.788 153.894C299.751 151.254 297.666 149.603 296.132 150.205C294.599 150.808 294.196 153.437 295.233 156.077C296.27 158.717 298.355 160.368 299.889 159.766Z" fill="#1668D0"/>
<path d="M308.438 127.595L301.831 131.411L294.939 127.595L301.557 123.778L308.438 127.595Z" fill="#1668D0"/>
<path d="M309.656 140.231L316.264 136.415L320.953 145.337L314.335 149.153L309.656 140.231Z" fill="#1668D0"/>
<path d="M321.217 175.005L314.599 178.822L309.605 182.597L316.223 178.791L321.217 175.005Z" fill="#1668D0"/>
<path opacity="0.44" d="M316.487 177.299C316.396 177.472 315.959 179.126 315.614 178.781C315.269 178.436 313.432 179.217 313.432 179.217L308.357 172.711L309.037 170.59H313.635" fill="#053855"/>
<path d="M291.772 149.255L291.295 147.57L285.915 144.636V135.501C285.915 135.319 291.122 138.546 291.122 138.546L291.366 138.039C291.659 136.637 292.195 135.298 292.949 134.08L289.163 127.087L293.974 123.423L297.578 130.64C298.886 130.337 300.249 130.362 301.546 130.711V123.778L308.428 127.595V134.832C309.78 136.126 311.01 137.543 312.102 139.064L316.254 136.415L320.943 145.337L317.228 148.29L317.543 149.782C318.022 151.365 318.405 152.975 318.69 154.604L324.211 157.649V166.784L318.954 163.647C318.727 165.31 318.149 166.905 317.259 168.327L321.197 175.015L316.203 178.791L312.691 171.909H308.327V178.791L301.759 174.792V168.022C300.25 166.544 298.918 164.896 297.791 163.109L293.842 165.809L289.072 156.674L293.031 153.751L292.645 152.381C292.32 151.346 292.015 150.3 291.772 149.255Z" fill="#1668D0"/>
<path opacity="0.44" d="M279.287 139.287L285.377 135.603L286.89 137.856L284.535 142.779" fill="#053855"/>
<path d="M287.255 169.626L291.752 167.758V165.028" fill="#1668D0"/>
<path d="M301.739 182.597L308.347 178.791L306.672 173.777L300.724 175.533L301.739 182.597Z" fill="#1668D0"/>
<path d="M293.954 123.403L287.346 127.209L290.97 134.446L294.939 134.517L295.862 127.209L293.954 123.403Z" fill="#1668D0"/>
<path d="M299.889 159.766C301.423 159.163 301.825 156.534 300.788 153.894C299.751 151.254 297.666 149.603 296.132 150.205C294.599 150.808 294.196 153.437 295.233 156.077C296.27 158.717 298.355 160.368 299.889 159.766Z" fill="#1668D0"/>
<path d="M309.656 140.231L316.264 136.415L320.953 145.337L314.335 149.153L309.656 140.231Z" fill="#1668D0"/>
<path d="M321.217 175.005L314.599 178.822L309.605 182.597L316.223 178.791L321.217 175.005Z" fill="#1668D0"/>
<path opacity="0.44" d="M291.772 149.255L291.295 147.57L285.915 144.636V135.501C285.915 135.319 291.122 138.546 291.122 138.546L291.366 138.039C291.659 136.637 292.195 135.298 292.949 134.08L289.163 127.087L293.974 123.423L297.578 130.64C298.886 130.337 300.249 130.362 301.546 130.711V123.778L308.428 127.595V134.832C309.78 136.126 311.01 137.543 312.102 139.064L316.254 136.415L320.943 145.337L317.228 148.29L317.543 149.782C318.022 151.365 318.405 152.975 318.69 154.604L324.211 157.649V166.784L318.954 163.647C318.727 165.31 318.149 166.905 317.259 168.327L321.197 175.015L316.203 178.791L312.691 171.909H308.327V178.791L301.759 174.792V168.022C300.25 166.544 298.918 164.896 297.791 163.109L293.842 165.809L289.072 156.674L293.031 153.751L292.645 152.381C292.32 151.346 292.015 150.3 291.772 149.255Z" fill="#053855"/>
<path opacity="0.1" d="M287.255 169.626L291.752 167.758V165.028" fill="#053855"/>
<path opacity="0.1" d="M301.739 182.597L308.347 178.791L306.672 173.777L300.724 175.533L301.739 182.597Z" fill="#053855"/>
<path opacity="0.1" d="M299.889 159.766C301.423 159.163 301.825 156.534 300.788 153.894C299.751 151.254 297.666 149.603 296.132 150.205C294.599 150.808 294.196 153.437 295.233 156.077C296.27 158.717 298.355 160.368 299.889 159.766Z" fill="#053855"/>
<path opacity="0.1" d="M309.656 140.231L316.264 136.415L320.953 145.337L314.335 149.153L309.656 140.231Z" fill="#053855"/>
<path opacity="0.1" d="M321.217 175.005L314.599 178.822L309.605 182.597L316.223 178.791L321.217 175.005Z" fill="#053855"/>
<path opacity="0.1" d="M287.255 169.626L291.752 167.758V165.028" fill="#053855"/>
<path opacity="0.44" d="M301.739 182.597L308.347 178.791L306.672 173.777L300.724 175.533L301.739 182.597Z" fill="#053855"/>
<path d="M285.154 153.071L284.677 151.386L279.298 148.453V139.318C279.298 139.135 284.505 142.363 284.505 142.363L284.748 141.855C285.042 140.454 285.577 139.114 286.332 137.897L282.546 130.903L287.357 127.239L290.96 134.456C292.269 134.154 293.632 134.178 294.929 134.527V127.625L301.81 131.441V138.678C303.17 139.953 304.41 141.349 305.515 142.85L309.666 140.201L314.356 149.123L310.59 152.107L310.905 153.599C311.384 155.181 311.767 156.791 312.052 158.42L317.573 161.465V170.6L312.316 167.464C312.089 169.126 311.511 170.721 310.62 172.143L314.559 178.832L309.575 182.597L306.063 175.716H301.699V182.597L295.132 178.598V171.838C293.622 170.361 292.29 168.712 291.163 166.926L287.245 169.626L282.475 160.491L286.433 157.568L286.047 156.197C285.702 155.162 285.398 154.106 285.154 153.071Z" fill="#1668D0"/>
<path opacity="0.44" d="M299.889 159.766C301.423 159.163 301.825 156.534 300.788 153.894C299.751 151.254 297.666 149.603 296.132 150.205C294.599 150.808 294.196 153.437 295.233 156.077C296.27 158.717 298.355 160.368 299.889 159.766Z" fill="#053855"/>
<path opacity="0.44" d="M321.217 175.005L314.599 178.822L309.605 182.597L316.223 178.791L321.217 175.005Z" fill="#053855"/>
<path d="M308.438 127.595L301.831 131.411L294.939 127.595L301.557 123.778L308.438 127.595Z" fill="#1668D0"/>
<path opacity="0.44" d="M308.438 127.564L301.841 131.411L294.939 127.615L301.546 123.778L308.438 127.564Z" fill="#053855"/>
<path d="M324.232 157.649L317.614 161.465V170.59L324.232 166.774V157.649Z" fill="#1668D0"/>
<path opacity="0.44" d="M324.232 157.649L317.614 161.465V170.59L324.232 166.774V157.649Z" fill="#053855"/>
<path d="M217.535 123.697C217.535 123.697 219.281 120.429 219.89 119.475C220.499 118.52 223.087 114.887 224.153 114.826C226.122 114.704 222.508 119.403 223.32 119.952C224.132 120.5 230.151 115.415 231.44 115.049C234.262 114.257 232.668 116.704 232.668 116.704C232.668 116.704 235.054 116.095 235.521 116.917C235.987 117.739 234.1 119.079 234.1 119.079C234.1 119.079 235.46 118.571 235.561 119.769C235.663 120.967 234.16 121.535 234.16 121.535C234.16 121.535 235.886 121.961 234.841 123.342C234.313 124.042 223.026 127.919 221.879 128.538C220.732 129.158 217.535 123.697 217.535 123.697Z" fill="#EEAD97"/>
<path d="M232.699 116.693L226.619 120.297" stroke="#8C6239" stroke-width="0.25375" stroke-miterlimit="10"/>
<path d="M234.13 119.079L228.05 121.758" stroke="#8C6239" stroke-width="0.25375" stroke-miterlimit="10"/>
<path d="M234.16 121.525L228.903 123.403" stroke="#8C6239" stroke-width="0.25375" stroke-miterlimit="10"/>
<path d="M180.315 247.689C178.417 246.461 175.808 248.583 174.225 248.38C172.641 248.177 171.982 239.143 171.982 239.143L162.441 238.849L161.872 256.855C163.1 257.703 164.435 258.385 165.841 258.885C165.841 258.885 165.201 250.643 166.937 250.836C168.673 251.029 169.322 257.372 171.383 258.022C173.443 258.672 179.848 254.612 180.914 253.891C181.979 253.17 182.213 248.917 180.315 247.689Z" fill="#C15827"/>
<path d="M200.077 259.372C198.179 258.144 195.57 260.265 193.987 260.062C192.403 259.859 191.744 250.826 191.744 250.826L182.213 250.531L181.644 268.548C182.869 269.395 184.2 270.077 185.603 270.578C185.603 270.578 184.963 262.336 186.699 262.529C188.435 262.721 189.084 269.065 191.145 269.715C193.205 270.364 199.61 266.304 200.676 265.584C201.741 264.863 201.985 260.59 200.077 259.372Z" fill="#C15827"/>
<path d="M164.146 158.846C164.146 158.846 157.041 172.376 158.35 247.903C158.35 247.903 166.227 253.343 178.65 250.501C178.65 250.501 179.097 162.44 177.838 159.263C176.58 156.086 164.146 158.846 164.146 158.846Z" fill="#55A0FF"/>
<path d="M187.775 157.253C190.444 174.701 193.144 192.169 194.626 209.759C195.895 224.75 196.22 239.833 197.083 254.855L197.174 256.5C193.61 258.307 189.686 259.291 185.691 259.379C181.696 259.466 177.733 258.656 174.093 257.007C174.093 257.007 170.723 183.673 171.048 173.645C171.373 163.617 171.87 151.985 177.452 150.412C183.035 148.838 187.775 157.253 187.775 157.253Z" fill="#55A0FF"/>
<path d="M163.517 121.809C163.517 121.809 149.205 140.313 152.727 146.616C156.249 152.919 171.119 147.986 171.119 147.986" fill="#A8C64E"/>
<path d="M217.21 121.403C217.21 121.403 204.522 132.7 199.519 129.584C181.502 118.206 177.625 118.267 177.625 118.267C177.625 118.267 164.197 113.933 162.207 119.728C160.218 125.524 162.37 157.811 164.552 160.328L164.674 160.44C165.771 161.154 166.942 161.749 168.165 162.216C170.052 162.798 171.989 163.202 173.951 163.424C178.122 163.597 184.101 162.226 187.501 159.78C189.267 155.243 189.744 139.866 189.744 139.866C189.744 139.866 196.971 145.357 205.192 143.215C212.5 141.307 223.726 129.665 223.726 129.665C223.452 125.148 217.21 121.403 217.21 121.403Z" fill="#B8D766"/>
<path d="M185.217 105.589C185.217 105.589 185.674 117.769 183.258 117.932C180.843 118.094 176.204 116.917 176.224 114.521C176.245 112.126 176.224 106.675 178.427 105.904C180.629 105.133 184.111 103.407 185.217 105.589Z" fill="#EEAD97"/>
<path d="M185.441 106.939C185.86 106.32 186.139 105.617 186.259 104.879C186.379 104.141 186.338 103.385 186.137 102.665C185.936 101.945 185.581 101.276 185.096 100.707C184.611 100.138 184.008 99.6806 183.329 99.3674C178.163 96.3732 169.535 97.0024 167.434 103.701C165.455 110.015 167.577 111.152 164.532 113.232C161.487 115.313 157.427 117.495 159.01 121.565C160.593 125.636 161.507 124.204 162.248 125.889C162.989 127.574 159.923 130.213 161.72 133.197C163.517 136.181 172.286 138.597 175.565 134.984C178.843 131.37 177.026 126.204 179.432 125.219C180.597 124.742 181.569 123.89 182.196 122.798C182.823 121.707 183.068 120.437 182.893 119.19C182.365 116.927 177.818 112.897 179.594 110.502C181.37 108.107 185.441 106.939 185.441 106.939Z" fill="#744122"/>
<path d="M171.606 180.253C171.606 179.339 170.134 179.238 170.155 180.253C170.676 205.851 171.958 231.416 174.001 256.946C174.073 257.849 175.524 257.91 175.453 256.946C173.409 231.422 172.127 205.858 171.606 180.253Z" fill="#163460"/>
</svg>
